<svg width="18" height="18" viewBox="0 0 18 18" fill="none" xmlns="http://www.w3.org/2000/svg">
<path fill-rule="evenodd" clip-rule="evenodd" d="M3 1.5H15C15.8284 1.5 16.5 2.17157 16.5 3V15C16.5 15.8284 15.8284 16.5 15 16.5H3C2.17157 16.5 1.5 15.8284 1.5 15V3C1.5 2.17157 2.17157 1.5 3 1.5ZM3 3V15H15V3H3ZM8.34985 9.0033H9.75006V13.5H11.2501V9.0033H12.7369V7.5033H11.2501V6.75C11.2501 6.33579 11.5858 6 12.0001 6H12.7501V4.5H12.0001C10.7574 4.5 9.75006 5.50736 9.75006 6.75V7.5033H8.34985V9.0033Z" fill="white"/>
</svg>
