<svg width="15" height="17" viewBox="0 0 15 17" fill="none" xmlns="http://www.w3.org/2000/svg">
<path d="M12.5 12.0161C11.8667 12.0161 11.3 12.2721 10.8667 12.6732L4.925 9.13153C4.96667 8.93524 5 8.73896 5 8.53414C5 8.32932 4.96667 8.13303 4.925 7.93675L10.8 4.42922C11.25 4.85592 11.8417 5.12048 12.5 5.12048C13.8833 5.12048 15 3.97691 15 2.56024C15 1.14357 13.8833 0 12.5 0C11.1167 0 10 1.14357 10 2.56024C10 2.76506 10.0333 2.96135 10.075 3.15763L4.2 6.66516C3.75 6.23845 3.15833 5.9739 2.5 5.9739C1.11667 5.9739 0 7.11747 0 8.53414C0 9.9508 1.11667 11.0944 2.5 11.0944C3.15833 11.0944 3.75 10.8298 4.2 10.4031L10.1333 13.9533C10.0917 14.1325 10.0667 14.3203 10.0667 14.508C10.0667 15.882 11.1583 17 12.5 17C13.8417 17 14.9333 15.882 14.9333 14.508C14.9333 13.134 13.8417 12.0161 12.5 12.0161Z" fill="black"/>
</svg>
