<svg width="24" height="24" viewBox="0 0 24 24" fill="none" xmlns="http://www.w3.org/2000/svg">
<path fill-rule="evenodd" clip-rule="evenodd" d="M2 12C2 6.48 6.48 2 12 2C17.52 2 22 6.48 22 12C22 17.52 17.52 22 12 22C6.48 22 2 17.52 2 12ZM5.69979 12.6999L9.28979 16.2899C9.67979 16.6799 10.3198 16.6799 10.6998 16.2899L18.2898 8.69995C18.6798 8.30995 18.6798 7.67995 18.2898 7.28995C17.8998 6.89995 17.2698 6.89995 16.8798 7.28995L9.99979 14.1699L7.10979 11.2899C6.71979 10.8999 6.08979 10.8999 5.69979 11.2899C5.51254 11.4768 5.40731 11.7304 5.40731 11.9949C5.40731 12.2595 5.51254 12.5131 5.69979 12.6999Z" fill="#ED7D4C"/>
</svg>
