<svg width="30" height="30" viewBox="0 0 30 30" fill="none" xmlns="http://www.w3.org/2000/svg">
<g clip-path="url(#clip0)">
<path d="M28.3594 30C29.2969 30 30 29.25 30 28.3594V1.64062C30 0.703125 29.25 0 28.3594 0H1.64062C0.75 0 0 0.75 0 1.64062V28.3125C0 29.25 0.75 29.9531 1.64062 29.9531H28.3594V30Z" fill="#3D5A98"/>
<path d="M20.7188 30.0005V18.3755H24.6094L25.1719 13.8286H20.6719V10.9224C20.6719 9.60986 21.0469 8.71924 22.9219 8.71924H25.3125V4.68799C24.8906 4.64111 23.4844 4.50049 21.7969 4.50049C18.3281 4.50049 15.9844 6.60986 15.9844 10.5005V13.8286H12.0938V18.3755H15.9844V30.0005H20.7188Z" fill="white"/>
</g>
<defs>
<clipPath id="clip0">
<rect width="30" height="30" fill="white"/>
</clipPath>
</defs>
</svg>
