<svg width="20" height="20" viewBox="0 0 20 20" fill="none" xmlns="http://www.w3.org/2000/svg">
<g id="info_outline_24px">
<path id="icon/action/info_outline_24px" fill-rule="evenodd" clip-rule="evenodd" d="M10.0003 1.6665C5.40033 1.6665 1.66699 5.39984 1.66699 9.99984C1.66699 14.5998 5.40033 18.3332 10.0003 18.3332C14.6003 18.3332 18.3337 14.5998 18.3337 9.99984C18.3337 5.39984 14.6003 1.6665 10.0003 1.6665ZM9.16699 5.83317V7.49984H10.8337V5.83317H9.16699ZM10.8337 13.3332C10.8337 13.7915 10.4587 14.1665 10.0003 14.1665C9.54199 14.1665 9.16699 13.7915 9.16699 13.3332V9.99984C9.16699 9.5415 9.54199 9.1665 10.0003 9.1665C10.4587 9.1665 10.8337 9.5415 10.8337 9.99984V13.3332ZM3.33366 9.99984C3.33366 13.6748 6.32533 16.6665 10.0003 16.6665C13.6753 16.6665 16.667 13.6748 16.667 9.99984C16.667 6.32484 13.6753 3.33317 10.0003 3.33317C6.32533 3.33317 3.33366 6.32484 3.33366 9.99984Z" fill="white"/>
</g>
</svg>
