<svg width="27" height="38" viewBox="0 0 27 38" fill="none" xmlns="http://www.w3.org/2000/svg">
<path d="M22.9109 28.573C20.7111 28.5659 18.4241 28.6039 17.5234 28.6485C17.3174 28.3975 11.6335 21.357 11.4205 21.1228C10.9263 20.5452 10.7003 20.3562 10.3876 20.3496C10.244 20.3426 9.96922 20.3426 9.76979 20.404V24.5751C9.76979 27.0951 9.95838 27.2326 12.3359 27.4732V28.573H3.83008V27.4732C6.26232 27.2326 6.44875 27.0038 6.44875 24.5751V6.64902C6.44875 4.26543 6.19783 4.16981 3.92058 3.80904V2.79138C5.961 2.6023 8.26264 2.06495 9.76979 1.50586V19.401C10.8537 19.1429 11.5582 18.655 12.13 18.0503C13.0106 17.1668 14.4061 15.4722 15.0071 14.5605C15.7377 13.5113 15.3816 13.1956 13.6458 13.0304V11.9378L21.4704 11.6042V12.6599C18.8847 13.069 18.0485 13.4053 16.4812 15.0505C15.7848 15.7797 14.2435 17.545 13.4041 18.5686C14.1921 19.7025 17.9851 24.1649 19.1958 25.4809C20.8981 27.2195 21.4124 27.3684 22.9109 27.4716V28.573Z" fill="white"/>
<path d="M7.759 31.5252C7.76435 31.7924 7.70582 32.0569 7.58829 32.2968C7.47766 32.5173 7.31577 32.7079 7.11626 32.8526C6.9194 32.9984 6.69802 33.1075 6.46267 33.1748C6.21573 33.244 5.96035 33.2782 5.70395 33.2764H5.08397V34.9651C5.0823 35.0477 5.09761 35.1298 5.12895 35.2063C5.14753 35.2441 5.17359 35.2777 5.20555 35.3051C5.23751 35.3324 5.27469 35.353 5.31484 35.3655C5.39575 35.3912 5.47912 35.4083 5.56359 35.4166C5.67143 35.4314 5.77996 35.4407 5.88876 35.4443V35.723H3.5042V35.4443C3.56707 35.4388 3.65757 35.4296 3.77517 35.4166C3.86003 35.411 3.94373 35.3939 4.02393 35.3655C4.09608 35.3367 4.15616 35.284 4.1941 35.2161C4.23264 35.1382 4.25126 35.0519 4.24829 34.9651V30.9444C4.24934 30.8603 4.23596 30.7767 4.20873 30.6972C4.19208 30.6581 4.16695 30.6231 4.13518 30.595C4.1034 30.5668 4.06577 30.546 4.02501 30.5342C3.92874 30.5011 3.82971 30.4768 3.72911 30.4614C3.63102 30.4473 3.54702 30.4375 3.47656 30.432V30.1533H6.01557C6.53258 30.1533 6.95223 30.2783 7.27451 30.5282C7.42933 30.6431 7.55422 30.7937 7.63857 30.9672C7.72292 31.1408 7.76423 31.3322 7.759 31.5252ZM6.56673 32.4755C6.65132 32.3587 6.71126 32.2257 6.74286 32.0849C6.76969 31.9657 6.78404 31.8441 6.78567 31.7219C6.78475 31.5684 6.76657 31.4155 6.73148 31.2661C6.69996 31.1199 6.63789 30.9822 6.54938 30.8618C6.45564 30.7371 6.33156 30.6385 6.18899 30.5755C6.01406 30.5025 5.82561 30.4677 5.63621 30.4733H5.08397V32.9352H5.48338C5.76519 32.9352 5.99425 32.8913 6.17057 32.8037C6.32916 32.7305 6.46618 32.6175 6.56835 32.4755H6.56673Z" fill="white"/>
<path d="M12.8438 34.0671L12.7262 35.7243H8.38086V35.4455C8.44318 35.4401 8.53423 35.4309 8.65183 35.4178C8.73669 35.4123 8.82039 35.3951 8.90058 35.3667C8.97283 35.3382 9.03296 35.2854 9.07076 35.2173C9.1093 35.1395 9.12792 35.0532 9.12495 34.9663V30.9761C9.12648 30.8952 9.11116 30.8149 9.07997 30.7403C9.04222 30.6661 8.97886 30.6081 8.90167 30.5773C8.82085 30.5379 8.73623 30.507 8.64912 30.4849C8.56162 30.4583 8.4718 30.4401 8.38086 30.4306V30.1519H10.7269V30.4306C10.6314 30.4363 10.5365 30.4493 10.443 30.4697C10.3576 30.4855 10.2732 30.5065 10.1904 30.5327C10.1501 30.5452 10.113 30.5662 10.0816 30.5943C10.0502 30.6224 10.0252 30.657 10.0083 30.6957C9.97518 30.7725 9.95839 30.8554 9.959 30.9391V34.6811C9.95646 34.8157 9.96498 34.9504 9.98447 35.0837C9.99613 35.1697 10.0387 35.2485 10.1042 35.3053C10.1844 35.3604 10.2782 35.3923 10.3752 35.3977C10.541 35.4145 10.7077 35.4218 10.8743 35.4194C10.9708 35.4194 11.0716 35.4167 11.1757 35.4118C11.2755 35.407 11.3751 35.3965 11.4737 35.3803C11.5596 35.366 11.6441 35.3441 11.7263 35.3151C11.7909 35.2956 11.8495 35.2599 11.8965 35.2113C12.0381 35.0411 12.1633 34.8577 12.2704 34.6637C12.385 34.4736 12.4831 34.274 12.5636 34.0671H12.8438Z" fill="white"/>
<path d="M18.6766 35.7228H16.3674V35.4441C16.5388 35.436 16.7088 35.4096 16.8746 35.3653C17.009 35.3262 17.0762 35.2778 17.0762 35.2202C17.0757 35.1913 17.0732 35.1624 17.0687 35.1338C17.0641 35.1028 17.0563 35.0724 17.0453 35.0431L16.5842 33.7951H14.6332C14.5609 33.9787 14.5013 34.1384 14.4543 34.2743C14.4073 34.4101 14.3662 34.5358 14.3307 34.6513C14.3026 34.7417 14.2791 34.8335 14.2603 34.9263C14.2488 34.9832 14.2422 35.041 14.2408 35.099C14.2408 35.2034 14.3232 35.2849 14.4874 35.3425C14.6671 35.4027 14.8545 35.4371 15.0439 35.4446V35.7233H12.9531V35.4446C13.0389 35.436 13.1239 35.4207 13.2073 35.399C13.2959 35.3797 13.3806 35.3459 13.4582 35.299C13.5509 35.2392 13.633 35.1643 13.701 35.0773C13.7701 34.978 13.8267 34.8705 13.8696 34.7573C14.1485 34.0586 14.4565 33.2733 14.7936 32.4014C15.1307 31.5295 15.4309 30.7535 15.6943 30.0732H16.0075L17.8604 34.879C17.8921 34.9676 17.9369 35.0509 17.9932 35.1262C18.0527 35.1979 18.1227 35.2602 18.2008 35.3109C18.2743 35.3529 18.3536 35.384 18.436 35.4033C18.5153 35.4251 18.5967 35.439 18.6788 35.4446L18.6766 35.7228ZM16.4405 33.4451L15.5989 31.2832L14.7692 33.4451H16.4405Z" fill="white"/>
<path d="M22.9005 30.4297C22.8281 30.4395 22.7572 30.4577 22.6891 30.484C22.6156 30.5056 22.5456 30.538 22.4815 30.5802C22.4083 30.6224 22.3389 30.671 22.274 30.7252C22.1973 30.8092 22.1266 30.8985 22.0626 30.9926C21.8588 31.2823 21.6708 31.5741 21.4984 31.8679C21.3261 32.1616 21.1108 32.5372 20.8525 32.9947C20.7743 33.1224 20.71 33.2581 20.6606 33.3995C20.6241 33.5443 20.6083 33.6936 20.6135 33.8429V34.9073C20.6105 34.9922 20.6291 35.0765 20.6676 35.1523C20.7138 35.2273 20.7833 35.285 20.8655 35.3164C20.9615 35.3486 21.0597 35.3742 21.1592 35.393C21.2712 35.4192 21.3852 35.4358 21.5001 35.4424V35.7212H18.8987V35.4424C18.971 35.437 19.0807 35.427 19.2277 35.4126C19.3313 35.4075 19.4338 35.3892 19.5328 35.3582C19.6149 35.329 19.6838 35.2711 19.7268 35.1952C19.7648 35.1171 19.7834 35.031 19.781 34.9442V33.5908C19.7691 33.5103 19.7433 33.4325 19.7046 33.3609C19.6537 33.2523 19.593 33.1262 19.5225 32.9898C19.3661 32.6863 19.1925 32.3578 19.0017 32.0042C18.8109 31.6507 18.6451 31.3484 18.5042 31.0974C18.4385 30.9778 18.3617 30.8647 18.275 30.7595C18.2075 30.6832 18.1304 30.6159 18.0457 30.5595C17.9762 30.5172 17.9002 30.4865 17.8208 30.4688C17.743 30.4497 17.6638 30.4366 17.584 30.4297V30.1509H19.9555V30.4297C19.6889 30.4351 19.5008 30.453 19.3914 30.484C19.2819 30.515 19.2288 30.5595 19.2288 30.6171C19.2324 30.6456 19.2404 30.6732 19.2526 30.6992C19.2683 30.7383 19.2906 30.7883 19.3193 30.848C19.3529 30.9165 19.3935 30.9942 19.4401 31.0817C19.4868 31.1691 19.5312 31.2539 19.5729 31.3349C19.6954 31.5678 19.8206 31.8001 19.9485 32.0319C20.0764 32.2638 20.2429 32.5653 20.4482 32.9366C20.8579 32.2748 21.1704 31.7587 21.3857 31.3881C21.6011 31.0175 21.7094 30.7959 21.7109 30.7231C21.7117 30.6954 21.7061 30.6678 21.6946 30.6427C21.683 30.6175 21.6658 30.5954 21.6442 30.578C21.5919 30.5377 21.532 30.5085 21.4681 30.4921C21.3873 30.4702 21.3045 30.4564 21.221 30.4509C21.1326 30.4443 21.0503 30.4373 20.9744 30.4291V30.1504H22.9064L22.9005 30.4297Z" fill="white"/>
</svg>
