<svg width="19" height="11" viewBox="0 0 19 11" fill="none" xmlns="http://www.w3.org/2000/svg">
<path fill-rule="evenodd" clip-rule="evenodd" d="M3.97353 0.101728C6.58186 -0.414938 8.91519 1.0934 9.70686 3.33506H16.6652C17.5819 3.33506 18.3319 4.08506 18.3319 5.00173C18.3319 5.9184 17.5819 6.6684 16.6652 6.6684V8.33506C16.6652 9.25173 15.9152 10.0017 14.9985 10.0017C14.0819 10.0017 13.3319 9.25173 13.3319 8.33506V6.6684H9.70686C9.02353 8.61006 7.17353 10.0017 4.99853 10.0017C1.88186 10.0017 -0.568141 7.1434 0.115192 3.9184C0.515192 2.01006 2.06519 0.485062 3.97353 0.101728ZM3.33189 5.00175C3.33189 5.91842 4.08189 6.66842 4.99856 6.66842C5.91522 6.66842 6.66522 5.91842 6.66522 5.00175C6.66522 4.08508 5.91522 3.33508 4.99856 3.33508C4.08189 3.33508 3.33189 4.08508 3.33189 5.00175Z" fill="#313131"/>
</svg>
