<svg width="25" height="33" viewBox="0 0 25 33" fill="none" xmlns="http://www.w3.org/2000/svg">
<path d="M6.696 25.268V31H6.016V26.788C6.016 26.732 6.01733 26.672 6.02 26.608C6.02533 26.544 6.03067 26.4787 6.036 26.412L4.068 29.996C4.00667 30.116 3.91333 30.176 3.788 30.176H3.676C3.55067 30.176 3.45733 30.116 3.396 29.996L1.388 26.396C1.404 26.5373 1.412 26.668 1.412 26.788V31H0.732V25.268H1.304C1.37333 25.268 1.42667 25.2747 1.464 25.288C1.50133 25.3013 1.53733 25.3387 1.572 25.4L3.552 28.928C3.584 28.992 3.61467 29.0587 3.644 29.128C3.676 29.1973 3.70533 29.268 3.732 29.34C3.75867 29.268 3.78667 29.1973 3.816 29.128C3.84533 29.056 3.87733 28.988 3.912 28.924L5.856 25.4C5.888 25.3387 5.92267 25.3013 5.96 25.288C6 25.2747 6.05467 25.268 6.124 25.268H6.696ZM11.6977 30.368L11.6937 31H8.16169V25.268H11.6937V25.9H8.93769V27.804H11.1697V28.412H8.93769V30.368H11.6977ZM17.4229 25.268V31H17.0349C16.9735 31 16.9215 30.9893 16.8789 30.968C16.8389 30.9467 16.7989 30.9107 16.7589 30.86L13.4429 26.54C13.4482 26.6067 13.4522 26.672 13.4549 26.736C13.4575 26.8 13.4589 26.86 13.4589 26.916V31H12.7789V25.268H13.1789C13.2135 25.268 13.2429 25.2707 13.2669 25.276C13.2909 25.2787 13.3122 25.2853 13.3309 25.296C13.3495 25.304 13.3682 25.3173 13.3869 25.336C13.4055 25.352 13.4255 25.3733 13.4469 25.4L16.7629 29.716C16.7575 29.6467 16.7522 29.58 16.7469 29.516C16.7442 29.4493 16.7429 29.3867 16.7429 29.328V25.268H17.4229ZM21.0403 28.716V31H20.2643V28.716L18.1643 25.268H18.8443C18.9136 25.268 18.9683 25.2853 19.0083 25.32C19.0483 25.352 19.0829 25.3947 19.1123 25.448L20.4243 27.676C20.4723 27.7693 20.5163 27.8573 20.5563 27.94C20.5963 28.02 20.6309 28.1013 20.6603 28.184C20.6896 28.1013 20.7229 28.02 20.7603 27.94C20.7976 27.8573 20.8389 27.7693 20.8843 27.676L22.1923 25.448C22.2163 25.4027 22.2496 25.3613 22.2923 25.324C22.3349 25.2867 22.3896 25.268 22.4563 25.268H23.1403L21.0403 28.716Z" fill="white"/>
<rect width="24" height="4" rx="2" fill="white"/>
<rect y="8" width="24" height="4" rx="2" fill="white"/>
<rect y="16" width="24" height="4" rx="2" fill="white"/>
</svg>
