<svg width="20" height="20" viewBox="0 0 20 20" fill="none" xmlns="http://www.w3.org/2000/svg">
<path fill-rule="evenodd" clip-rule="evenodd" d="M16.667 3.3335H3.33366C2.41699 3.3335 1.67533 4.0835 1.67533 5.00016L1.66699 15.0002C1.66699 15.9168 2.41699 16.6668 3.33366 16.6668H16.667C17.5837 16.6668 18.3337 15.9168 18.3337 15.0002V5.00016C18.3337 4.0835 17.5837 3.3335 16.667 3.3335ZM16.667 14.1668C16.667 14.6252 16.292 15.0002 15.8337 15.0002H4.16699C3.70866 15.0002 3.33366 14.6252 3.33366 14.1668V6.66683L9.11699 10.2835C9.65866 10.6252 10.342 10.6252 10.8837 10.2835L16.667 6.66683V14.1668ZM3.33366 5.00016L10.0003 9.16683L16.667 5.00016H3.33366Z" fill="white"/>
</svg>
