<svg width="24" height="24" viewBox="0 0 24 24" fill="none" xmlns="http://www.w3.org/2000/svg">
<path d="M18.2997 5.7102C18.1129 5.52295 17.8592 5.41771 17.5947 5.41771C17.3302 5.41771 17.0766 5.52295 16.8897 5.7102L11.9997 10.5902L7.10973 5.7002C6.9229 5.51295 6.66924 5.40771 6.40473 5.40771C6.14021 5.40771 5.88656 5.51295 5.69973 5.7002C5.30973 6.0902 5.30973 6.7202 5.69973 7.1102L10.5897 12.0002L5.69973 16.8902C5.30973 17.2802 5.30973 17.9102 5.69973 18.3002C6.08973 18.6902 6.71973 18.6902 7.10973 18.3002L11.9997 13.4102L16.8897 18.3002C17.2797 18.6902 17.9097 18.6902 18.2997 18.3002C18.6897 17.9102 18.6897 17.2802 18.2997 16.8902L13.4097 12.0002L18.2997 7.1102C18.6797 6.7302 18.6797 6.0902 18.2997 5.7102Z" fill="white"/>
</svg>
