<svg width="20" height="20" viewBox="0 0 20 20" fill="none" xmlns="http://www.w3.org/2000/svg">
<g id="markunread_24px">
<path id="icon/content/markunread_24px" fill-rule="evenodd" clip-rule="evenodd" d="M3.33268 3.3335H16.666C17.5827 3.3335 18.3327 4.0835 18.3327 5.00016V15.0002C18.3327 15.9168 17.5827 16.6668 16.666 16.6668H3.33268C2.41602 16.6668 1.66602 15.9168 1.66602 15.0002V5.00016C1.66602 4.0835 2.41602 3.3335 3.33268 3.3335ZM10.8827 10.2835L16.3327 6.87515C16.541 6.74182 16.666 6.51682 16.666 6.27515C16.666 5.71682 16.0577 5.38348 15.5827 5.67515L9.99935 9.16682L4.41602 5.67515C3.94102 5.38348 3.33268 5.71682 3.33268 6.27515C3.33268 6.51682 3.45768 6.74182 3.66602 6.87515L9.11602 10.2835C9.65768 10.6252 10.341 10.6252 10.8827 10.2835Z" fill="#313131"/>
</g>
</svg>
