<svg width="16" height="20" viewBox="0 0 16 20" fill="none" xmlns="http://www.w3.org/2000/svg">
<path fill-rule="evenodd" clip-rule="evenodd" d="M13.9734 12.5088C14.0434 12.0188 14.4534 11.6488 14.9534 11.6488C15.5534 11.6488 16.0434 12.1788 15.9534 12.7688C15.3334 17.2388 11.0134 20.5187 6.18343 19.4387C3.09341 18.7488 0.793417 16.3588 0.193381 13.2488C-0.806619 8.12875 3.09341 3.64875 8.03341 3.64875V0.858762C8.03341 0.408749 8.57339 0.188763 8.88338 0.498761L12.6734 4.28875C12.8734 4.48875 12.8734 4.79876 12.6734 4.99876L8.88338 8.78875C8.57339 9.10876 8.03341 8.88876 8.03341 8.43876V5.64876C4.30343 5.64876 1.35341 9.06875 2.16341 12.9388C2.64339 15.1988 4.30343 16.9288 6.55343 17.4688C10.2034 18.3488 13.4934 15.8788 13.9734 12.5088ZM6.37337 13.9888C6.45339 13.9588 6.51339 13.9188 6.57339 13.8688C6.58651 13.853 6.59963 13.8387 6.61239 13.8247L6.613 13.8241L6.61477 13.8222C6.64968 13.7841 6.68172 13.7492 6.70339 13.6988C6.73336 13.6288 6.74337 13.5487 6.74337 13.4588C6.74337 13.3488 6.72335 13.2487 6.69338 13.1688C6.66335 13.0888 6.61336 13.0188 6.55337 12.9687C6.49337 12.9188 6.42336 12.8887 6.3334 12.8587C6.24337 12.8287 6.1534 12.8188 6.04336 12.8188H5.59334V12.1587H6.0234C6.24337 12.1587 6.39339 12.1087 6.50338 11.9987C6.61336 11.8887 6.66335 11.7487 6.66335 11.5688C6.66335 11.4888 6.6534 11.4087 6.62337 11.3488L6.62313 11.3483C6.59322 11.2885 6.56325 11.2286 6.51339 11.1788C6.4634 11.1288 6.4034 11.0988 6.3334 11.0688C6.26339 11.0388 6.18337 11.0287 6.0834 11.0287C6.00338 11.0287 5.93337 11.0287 5.86336 11.0588C5.79336 11.0888 5.73336 11.1188 5.68337 11.1587C5.63338 11.1988 5.59334 11.2487 5.56338 11.3088C5.53335 11.3688 5.51339 11.4387 5.51339 11.5088H4.66335C4.66335 11.3287 4.70339 11.1788 4.7734 11.0287C4.84334 10.8788 4.95339 10.7588 5.07339 10.6587C5.19338 10.5588 5.35335 10.4788 5.51339 10.4288C5.67336 10.3788 5.86336 10.3488 6.05337 10.3488C6.2734 10.3488 6.4634 10.3788 6.64339 10.4288C6.82339 10.4788 6.97335 10.5588 7.10335 10.6587C7.23336 10.7588 7.3334 10.8788 7.4034 11.0388C7.47335 11.1988 7.51339 11.3688 7.51339 11.5688C7.51339 11.6587 7.50338 11.7487 7.47335 11.8388C7.44338 11.9288 7.39339 12.0088 7.34334 12.0888C7.29336 12.1688 7.22335 12.2388 7.14339 12.3088C7.06338 12.3788 6.9634 12.4288 6.86336 12.4788C7.10335 12.5688 7.28335 12.6988 7.4034 12.8688C7.5234 13.0388 7.5834 13.2487 7.5834 13.4788C7.5834 13.6788 7.54336 13.8587 7.4634 14.0088C7.38338 14.1587 7.28335 14.2987 7.14339 14.3988C7.00338 14.4987 6.85335 14.5888 6.66335 14.6387C6.47335 14.6887 6.2734 14.7187 6.06338 14.7187C5.88338 14.7187 5.70339 14.6988 5.53335 14.6488C5.36336 14.5988 5.2134 14.5188 5.07339 14.4188C4.93337 14.3188 4.82339 14.1988 4.74337 14.0388C4.66335 13.8788 4.62337 13.6988 4.62337 13.4888H5.47335C5.47335 13.5688 5.49337 13.6387 5.5234 13.7088C5.55337 13.7787 5.59334 13.8287 5.6534 13.8788C5.7134 13.9288 5.7734 13.9588 5.85335 13.9888C5.93337 14.0188 6.01339 14.0287 6.10335 14.0287C6.20339 14.0287 6.29336 14.0188 6.37337 13.9888ZM10.4734 10.4288C10.2934 10.3588 10.1034 10.3288 9.88338 10.3288C9.66341 10.3288 9.47341 10.3588 9.29342 10.4288C9.11336 10.4988 8.9634 10.6088 8.8434 10.7588C8.72341 10.9088 8.61336 11.0988 8.55337 11.3288C8.49337 11.5588 8.45339 11.8288 8.45339 12.1488V12.8888C8.45339 13.2088 8.49337 13.4888 8.56338 13.7088C8.63338 13.9288 8.73342 14.1288 8.86336 14.2788C8.99337 14.4288 9.14339 14.5388 9.32339 14.6088C9.50338 14.6788 9.69338 14.7088 9.91341 14.7088C10.1334 14.7088 10.3234 14.6788 10.5034 14.6088C10.6834 14.5388 10.8334 14.4288 10.9534 14.2788C11.0734 14.1288 11.1734 13.9388 11.2434 13.7088C11.3134 13.4788 11.3434 13.2088 11.3434 12.8888V12.1488C11.3434 11.8288 11.3034 11.5488 11.2334 11.3288C11.1634 11.1088 11.0634 10.9088 10.9334 10.7588C10.8034 10.6088 10.6534 10.4988 10.4734 10.4288ZM10.4434 13.4788C10.4734 13.3488 10.4834 13.1887 10.4834 12.9987H10.4934V12.0287C10.4934 11.8388 10.4834 11.6788 10.4534 11.5487C10.4234 11.4187 10.3834 11.3188 10.3334 11.2388C10.2834 11.1587 10.2134 11.0988 10.1434 11.0688C10.0734 11.0388 9.98342 11.0188 9.89339 11.0188C9.80343 11.0188 9.72341 11.0388 9.64339 11.0688C9.56344 11.0988 9.51339 11.1587 9.45339 11.2388C9.39339 11.3188 9.36342 11.4187 9.3334 11.5487C9.30343 11.6788 9.29342 11.8388 9.29342 12.0287V12.9987C9.29342 13.1887 9.30343 13.3488 9.3334 13.4788C9.36342 13.6087 9.4034 13.7187 9.45339 13.7987C9.50344 13.8788 9.57345 13.9387 9.64339 13.9687C9.7134 13.9987 9.80343 14.0188 9.89339 14.0188C9.98342 14.0188 10.0634 13.9987 10.1434 13.9687C10.2234 13.9387 10.2834 13.8788 10.3334 13.7987C10.3834 13.7187 10.4134 13.6087 10.4434 13.4788Z" fill="white" fill-opacity="1"/>
</svg>
