<svg width="24" height="24" viewBox="0 0 24 24" fill="none" xmlns="http://www.w3.org/2000/svg">
<path fill-rule="evenodd" clip-rule="evenodd" d="M17.9736 14.5086C18.0436 14.0186 18.4536 13.6486 18.9536 13.6486C19.5536 13.6486 20.0436 14.1786 19.9536 14.7686C19.3336 19.2386 15.0136 22.5186 10.1836 21.4386C7.09356 20.7486 4.79356 18.3586 4.19356 15.2486C3.19356 10.1286 7.09356 5.64862 12.0336 5.64862V2.85862C12.0336 2.40862 12.5736 2.18862 12.8836 2.49862L16.6736 6.28862C16.8736 6.48862 16.8736 6.79862 16.6736 6.99862L12.8836 10.7886C12.5736 11.1086 12.0336 10.8886 12.0336 10.4386V7.64862C8.30356 7.64862 5.35356 11.0686 6.16356 14.9386C6.64356 17.1986 8.30356 18.9286 10.5536 19.4686C14.2036 20.3486 17.4936 17.8786 17.9736 14.5086ZM10.9336 12.3786V16.6486H10.0836V13.3886L9.07356 13.6986V13.0086L10.8436 12.3786H10.9336ZM14.3536 12.4286C14.1736 12.3586 13.9836 12.3286 13.7636 12.3286C13.5436 12.3286 13.3536 12.3586 13.1736 12.4286C12.9936 12.4986 12.8436 12.6086 12.7236 12.7586C12.6036 12.9086 12.4936 13.0986 12.4336 13.3286C12.3736 13.5586 12.3336 13.8286 12.3336 14.1486V14.8886C12.3336 15.2086 12.3736 15.4886 12.4436 15.7086C12.5136 15.9286 12.6136 16.1286 12.7436 16.2786C12.8736 16.4286 13.0236 16.5386 13.2036 16.6086C13.3836 16.6786 13.5736 16.7086 13.7936 16.7086C14.0136 16.7086 14.2036 16.6786 14.3836 16.6086C14.5636 16.5386 14.7136 16.4286 14.8336 16.2786C14.9536 16.1286 15.0536 15.9386 15.1236 15.7086C15.1936 15.4786 15.2236 15.2086 15.2236 14.8886V14.1486C15.2236 13.8286 15.1836 13.5486 15.1136 13.3286C15.0436 13.1086 14.9436 12.9086 14.8136 12.7586C14.6836 12.6086 14.5236 12.4986 14.3536 12.4286ZM14.3236 15.4786C14.3536 15.3486 14.3636 15.1886 14.3636 14.9986H14.3736V14.0286C14.3736 13.8386 14.3636 13.6786 14.3336 13.5486C14.3036 13.4186 14.2636 13.3186 14.2136 13.2386C14.1636 13.1586 14.0936 13.0986 14.0236 13.0686C13.9536 13.0386 13.8636 13.0186 13.7736 13.0186C13.6836 13.0186 13.6036 13.0386 13.5236 13.0686C13.4436 13.0986 13.3936 13.1586 13.3336 13.2386C13.2736 13.3186 13.2436 13.4186 13.2136 13.5486C13.1836 13.6786 13.1736 13.8386 13.1736 14.0286V14.9986C13.1736 15.1886 13.1836 15.3486 13.2136 15.4786C13.2436 15.6086 13.2836 15.7186 13.3336 15.7986C13.3836 15.8786 13.4536 15.9386 13.5236 15.9686C13.5936 15.9986 13.6836 16.0186 13.7736 16.0186C13.8636 16.0186 13.9436 15.9986 14.0236 15.9686C14.1036 15.9386 14.1636 15.8786 14.2136 15.7986C14.2636 15.7186 14.2936 15.6086 14.3236 15.4786Z" fill="white"/>
</svg>
