<svg width="27" height="38" viewBox="0 0 27 38" fill="none" xmlns="http://www.w3.org/2000/svg">
<path d="M22.9118 28.573C20.7121 28.5659 18.4251 28.6039 17.5244 28.6485C17.3184 28.3975 11.6345 21.357 11.4215 21.1228C10.9273 20.5452 10.7013 20.3562 10.3886 20.3496C10.245 20.3426 9.9702 20.3426 9.77076 20.404V24.5751C9.77076 27.0951 9.95936 27.2326 12.3369 27.4732V28.573H3.83105V27.4732C6.2633 27.2326 6.44973 27.0038 6.44973 24.5751V6.64902C6.44973 4.26543 6.19881 4.16981 3.92156 3.80904V2.79138C5.96198 2.6023 8.26362 2.06495 9.77076 1.50586V19.401C10.8547 19.1429 11.5592 18.655 12.1309 18.0503C13.0116 17.1668 14.4071 15.4722 15.0081 14.5605C15.7387 13.5113 15.3826 13.1956 13.6467 13.0304V11.9378L21.4713 11.6042V12.6599C18.8857 13.069 18.0495 13.4053 16.4822 15.0505C15.7858 15.7797 14.2445 17.545 13.405 18.5686C14.193 19.7025 17.9861 24.1649 19.1968 25.4809C20.899 27.2195 21.4134 27.3684 22.9118 27.4716V28.573Z" fill="white"/>
<path d="M7.759 31.5252C7.76435 31.7924 7.70582 32.0569 7.58829 32.2968C7.47766 32.5173 7.31577 32.7079 7.11626 32.8526C6.9194 32.9984 6.69802 33.1075 6.46267 33.1748C6.21573 33.244 5.96035 33.2782 5.70395 33.2764H5.08397V34.9651C5.0823 35.0477 5.09761 35.1298 5.12895 35.2063C5.14753 35.2441 5.17359 35.2777 5.20555 35.3051C5.23751 35.3324 5.27469 35.353 5.31484 35.3655C5.39575 35.3912 5.47912 35.4083 5.56359 35.4166C5.67143 35.4314 5.77996 35.4407 5.88876 35.4443V35.723H3.5042V35.4443C3.56707 35.4388 3.65757 35.4296 3.77517 35.4166C3.86003 35.411 3.94373 35.3939 4.02393 35.3655C4.09608 35.3367 4.15616 35.284 4.1941 35.2161C4.23264 35.1382 4.25126 35.0519 4.24829 34.9651V30.9444C4.24934 30.8603 4.23596 30.7767 4.20873 30.6972C4.19208 30.6581 4.16695 30.6231 4.13518 30.595C4.1034 30.5668 4.06577 30.546 4.02501 30.5342C3.92874 30.5011 3.82971 30.4768 3.72911 30.4614C3.63102 30.4473 3.54702 30.4375 3.47656 30.432V30.1533H6.01557C6.53258 30.1533 6.95223 30.2783 7.27451 30.5282C7.42933 30.6431 7.55422 30.7937 7.63857 30.9672C7.72292 31.1408 7.76423 31.3322 7.759 31.5252ZM6.56673 32.4755C6.65132 32.3587 6.71126 32.2257 6.74286 32.0849C6.76969 31.9657 6.78404 31.8441 6.78567 31.7219C6.78475 31.5684 6.76657 31.4155 6.73148 31.2661C6.69996 31.1199 6.63789 30.9822 6.54938 30.8618C6.45564 30.7371 6.33156 30.6385 6.18899 30.5755C6.01406 30.5025 5.82561 30.4677 5.63621 30.4733H5.08397V32.9352H5.48338C5.76519 32.9352 5.99425 32.8913 6.17057 32.8037C6.32916 32.7305 6.46618 32.6175 6.56835 32.4755H6.56673Z" fill="white"/>
<path d="M12.8438 34.0671L12.7262 35.7243H8.38086V35.4455C8.44318 35.4401 8.53423 35.4309 8.65183 35.4178C8.73669 35.4123 8.82039 35.3951 8.90058 35.3667C8.97283 35.3382 9.03296 35.2854 9.07076 35.2173C9.1093 35.1395 9.12792 35.0532 9.12495 34.9663V30.9761C9.12648 30.8952 9.11116 30.8149 9.07997 30.7403C9.04222 30.6661 8.97886 30.6081 8.90167 30.5773C8.82085 30.5379 8.73623 30.507 8.64912 30.4849C8.56162 30.4583 8.4718 30.4401 8.38086 30.4306V30.1519H10.7269V30.4306C10.6314 30.4363 10.5365 30.4493 10.443 30.4697C10.3576 30.4855 10.2732 30.5065 10.1904 30.5327C10.1501 30.5452 10.113 30.5662 10.0816 30.5943C10.0502 30.6224 10.0252 30.657 10.0083 30.6957C9.97518 30.7725 9.95839 30.8554 9.959 30.9391V34.6811C9.95646 34.8157 9.96498 34.9504 9.98447 35.0837C9.99613 35.1697 10.0387 35.2485 10.1042 35.3053C10.1844 35.3604 10.2782 35.3923 10.3752 35.3977C10.541 35.4145 10.7077 35.4218 10.8743 35.4194C10.9708 35.4194 11.0716 35.4167 11.1757 35.4118C11.2755 35.407 11.3751 35.3965 11.4737 35.3803C11.5596 35.366 11.6441 35.3441 11.7263 35.3151C11.7909 35.2956 11.8495 35.2599 11.8965 35.2113C12.0381 35.0411 12.1633 34.8577 12.2704 34.6637C12.385 34.4736 12.4831 34.274 12.5636 34.0671H12.8438Z" fill="white"/>
<path d="M18.6756 35.7228H16.3664V35.4441C16.5378 35.436 16.7079 35.4096 16.8737 35.3653C17.0081 35.3262 17.0753 35.2778 17.0753 35.2202C17.0747 35.1913 17.0722 35.1624 17.0677 35.1338C17.0631 35.1028 17.0553 35.0724 17.0444 35.0431L16.5832 33.7951H14.6322C14.5599 33.9787 14.5003 34.1384 14.4533 34.2743C14.4064 34.4101 14.3652 34.5358 14.3298 34.6513C14.3016 34.7417 14.2781 34.8335 14.2593 34.9263C14.2478 34.9832 14.2413 35.041 14.2398 35.099C14.2398 35.2034 14.3222 35.2849 14.4864 35.3425C14.6662 35.4027 14.8536 35.4371 15.043 35.4446V35.7233H12.9521V35.4446C13.0379 35.436 13.1229 35.4207 13.2063 35.399C13.2949 35.3797 13.3797 35.3459 13.4572 35.299C13.55 35.2392 13.632 35.1643 13.7 35.0773C13.7691 34.978 13.8257 34.8705 13.8686 34.7573C14.1475 34.0586 14.4555 33.2733 14.7926 32.4014C15.1297 31.5295 15.4299 30.7535 15.6933 30.0732H16.0065L17.8595 34.879C17.8911 34.9676 17.9359 35.0509 17.9922 35.1262C18.0517 35.1979 18.1217 35.2602 18.1998 35.3109C18.2734 35.3529 18.3526 35.384 18.435 35.4033C18.5144 35.4251 18.5957 35.439 18.6778 35.4446L18.6756 35.7228ZM16.4396 33.4451L15.5979 31.2832L14.7682 33.4451H16.4396Z" fill="white"/>
<path d="M22.8995 30.4297C22.8272 30.4395 22.7562 30.4577 22.6881 30.484C22.6146 30.5056 22.5446 30.538 22.4806 30.5802C22.4073 30.6224 22.3379 30.671 22.273 30.7252C22.1963 30.8092 22.1256 30.8985 22.0616 30.9926C21.8579 31.2823 21.6698 31.5741 21.4975 31.8679C21.3251 32.1616 21.1098 32.5372 20.8515 32.9947C20.7734 33.1224 20.709 33.2581 20.6596 33.3995C20.6232 33.5443 20.6073 33.6936 20.6125 33.8429V34.9073C20.6095 34.9922 20.6282 35.0765 20.6667 35.1523C20.7128 35.2273 20.7823 35.285 20.8645 35.3164C20.9605 35.3486 21.0587 35.3742 21.1582 35.393C21.2702 35.4192 21.3843 35.4358 21.4991 35.4424V35.7212H18.8978V35.4424C18.97 35.437 19.0797 35.427 19.2267 35.4126C19.3303 35.4075 19.4328 35.3892 19.5318 35.3582C19.6139 35.329 19.6828 35.2711 19.7259 35.1952C19.7638 35.1171 19.7824 35.031 19.78 34.9442V33.5908C19.7682 33.5103 19.7423 33.4325 19.7036 33.3609C19.6527 33.2523 19.592 33.1262 19.5215 32.9898C19.3651 32.6863 19.1915 32.3578 19.0007 32.0042C18.81 31.6507 18.6441 31.3484 18.5032 31.0974C18.4375 30.9778 18.3608 30.8647 18.274 30.7595C18.2065 30.6832 18.1295 30.6159 18.0447 30.5595C17.9752 30.5172 17.8992 30.4865 17.8198 30.4688C17.742 30.4497 17.6628 30.4366 17.583 30.4297V30.1509H19.9546V30.4297C19.6879 30.4351 19.4999 30.453 19.3904 30.484C19.2809 30.515 19.2278 30.5595 19.2278 30.6171C19.2314 30.6456 19.2394 30.6732 19.2517 30.6992C19.2674 30.7383 19.2896 30.7883 19.3183 30.848C19.3519 30.9165 19.3926 30.9942 19.4392 31.0817C19.4858 31.1691 19.5302 31.2539 19.5719 31.3349C19.6944 31.5678 19.8196 31.8001 19.9475 32.0319C20.0754 32.2638 20.242 32.5653 20.4472 32.9366C20.8569 32.2748 21.1694 31.7587 21.3847 31.3881C21.6001 31.0175 21.7085 30.7959 21.7099 30.7231C21.7107 30.6954 21.7052 30.6678 21.6936 30.6427C21.682 30.6175 21.6648 30.5954 21.6433 30.578C21.5909 30.5377 21.531 30.5085 21.4671 30.4921C21.3863 30.4702 21.3035 30.4564 21.22 30.4509C21.1317 30.4443 21.0493 30.4373 20.9734 30.4291V30.1504H22.9054L22.8995 30.4297Z" fill="white"/>
</svg>
