<svg width="16" height="16" viewBox="0 0 16 16" fill="none" xmlns="http://www.w3.org/2000/svg">
<path d="M7.5 0.0162518C3.51667 0.274585 0.5 3.76625 0.5 7.75792V13.3329C0.5 14.7163 1.61667 15.8329 3 15.8329H3.83333C4.75 15.8329 5.5 15.0829 5.5 14.1663V10.8329C5.5 9.91625 4.75 9.16625 3.83333 9.16625H2.16667V7.74125C2.16667 4.54125 4.63333 1.75792 7.825 1.66625C11.1333 1.57459 13.8333 4.21625 13.8333 7.49959V9.16625H12.1667C11.25 9.16625 10.5 9.91625 10.5 10.8329V14.1663C10.5 15.0829 11.25 15.8329 12.1667 15.8329H13C14.3833 15.8329 15.5 14.7163 15.5 13.3329V7.49959C15.5 3.19125 11.8667 -0.267082 7.5 0.0162518Z" fill="white"/>
</svg>
