<svg width="16" height="20" viewBox="0 0 16 20" fill="none" xmlns="http://www.w3.org/2000/svg">
<path fill-rule="evenodd" clip-rule="evenodd" d="M7.96205 0.852486V3.64249C12.9021 3.64249 16.8021 8.12249 15.8121 13.2525C15.2021 16.3725 12.6921 18.8825 9.5721 19.4925C4.84205 20.4125 0.662062 17.1625 0.042067 12.7725C-0.0379501 12.1725 0.442091 11.6425 1.04207 11.6425C1.53206 11.6425 1.9521 12.0125 2.02205 12.4925C2.50209 15.8025 5.68208 18.2525 9.25209 17.5025C11.5121 17.0325 13.3521 15.2025 13.8221 12.9325C14.6421 9.06248 11.6921 5.64249 7.96205 5.64249V8.43249C7.96205 8.88249 7.42207 9.10249 7.10206 8.79248L3.31209 5.00249C3.11207 4.80249 3.11207 4.49249 3.31209 4.29249L7.11207 0.502485C7.42207 0.182486 7.96205 0.402486 7.96205 0.852486ZM5.97212 12.1325H5.52211V12.7825H5.99208C6.10213 12.7825 6.19209 12.8025 6.28212 12.8225C6.37208 12.8425 6.44209 12.8825 6.50209 12.9325C6.56209 12.9825 6.61207 13.0525 6.6421 13.1325C6.67207 13.2125 6.69209 13.3125 6.69209 13.4225C6.69209 13.5125 6.68208 13.5925 6.65211 13.6625C6.62208 13.7325 6.5721 13.7925 6.52211 13.8425C6.47212 13.8925 6.40211 13.9325 6.3221 13.9625C6.24208 13.9925 6.15211 14.0025 6.05208 14.0025C5.96211 14.0025 5.88209 13.9825 5.80208 13.9625C5.72212 13.9425 5.66212 13.9025 5.60213 13.8525C5.54207 13.8025 5.50209 13.7525 5.47212 13.6825C5.44209 13.6125 5.42207 13.5425 5.42207 13.4625H4.5721C4.5721 13.6725 4.61207 13.8625 4.69209 14.0125C4.77211 14.1625 4.8921 14.2825 5.02211 14.3925C5.15211 14.5025 5.31209 14.5725 5.48207 14.6225C5.65211 14.6725 5.83211 14.6925 6.0121 14.6925C6.23207 14.6925 6.42207 14.6625 6.61207 14.6125C6.80208 14.5625 6.9521 14.4725 7.09212 14.3725C7.23207 14.2725 7.33211 14.1325 7.41212 13.9825C7.49208 13.8325 7.53212 13.6525 7.53212 13.4525C7.53212 13.2225 7.47212 13.0225 7.35213 12.8425C7.23207 12.6625 7.05208 12.5425 6.81209 12.4525C6.92207 12.4025 7.0121 12.3525 7.09212 12.2825C7.17207 12.2125 7.23207 12.1425 7.29207 12.0625C7.35213 11.9825 7.3921 11.9025 7.42207 11.8125C7.4521 11.7225 7.46211 11.6325 7.46211 11.5425C7.46211 11.3425 7.42207 11.1625 7.35213 11.0125C7.28212 10.8625 7.18208 10.7325 7.05208 10.6325C6.92207 10.5325 6.77211 10.4525 6.59212 10.4025C6.41212 10.3525 6.21211 10.3225 6.00209 10.3225C5.81209 10.3225 5.63209 10.3525 5.46211 10.4025C5.29207 10.4525 5.15211 10.5325 5.02211 10.6325C4.8921 10.7325 4.79207 10.8625 4.72212 11.0025C4.65211 11.1425 4.61207 11.3025 4.61207 11.4825H5.46211C5.46211 11.4125 5.48207 11.3425 5.5121 11.2825C5.54207 11.2225 5.58211 11.1825 5.63209 11.1325C5.68208 11.0825 5.74208 11.0525 5.81209 11.0325C5.88209 11.0125 5.9521 11.0025 6.03212 11.0025C6.12208 11.0025 6.21211 11.0225 6.28212 11.0425C6.35213 11.0625 6.41212 11.1025 6.46211 11.1525C6.5121 11.2025 6.54207 11.2525 6.5721 11.3225C6.60213 11.3925 6.61207 11.4625 6.61207 11.5425C6.61207 11.7225 6.56209 11.8625 6.4521 11.9725C6.34212 12.0825 6.18208 12.1325 5.97212 12.1325ZM11.2621 12.8825C11.2621 13.2025 11.2321 13.4825 11.1621 13.7025C11.0921 13.9225 10.9921 14.1225 10.8721 14.2725C10.7521 14.4225 10.5921 14.5325 10.4221 14.6025C10.2521 14.6725 10.0521 14.7025 9.83211 14.7025C9.61207 14.7025 9.42207 14.6725 9.24208 14.6025C9.06209 14.5325 8.91206 14.4225 8.78206 14.2725C8.65211 14.1225 8.55208 13.9325 8.48207 13.7025C8.41206 13.4725 8.37208 13.2025 8.37208 12.8825V12.1425C8.37208 11.8225 8.40211 11.5425 8.47206 11.3225C8.54207 11.1025 8.6421 10.9025 8.7621 10.7525C8.88209 10.6025 9.04207 10.4925 9.21211 10.4225C9.38209 10.3525 9.58211 10.3225 9.80208 10.3225C10.0221 10.3225 10.2121 10.3525 10.3921 10.4225C10.5721 10.4925 10.7221 10.6025 10.8521 10.7525C10.9821 10.9025 11.0821 11.0925 11.1521 11.3225C11.2221 11.5525 11.2621 11.8225 11.2621 12.1425V12.8825ZM10.372 11.5425C10.4021 11.6725 10.4121 11.8325 10.4121 12.0225H10.4021V12.9925C10.4021 13.1825 10.392 13.3425 10.3621 13.4725C10.3421 13.6025 10.3021 13.7125 10.252 13.7925C10.202 13.8725 10.132 13.9325 10.062 13.9625C9.99208 13.9925 9.90205 14.0125 9.81203 14.0125C9.72206 14.0125 9.64204 13.9925 9.56203 13.9625C9.48207 13.9325 9.42207 13.8725 9.37202 13.7925C9.32203 13.7125 9.28206 13.6025 9.25203 13.4725C9.22206 13.3425 9.21205 13.1825 9.21205 12.9925V12.0225C9.21205 11.8325 9.22206 11.6725 9.25203 11.5425C9.28206 11.4125 9.32203 11.3125 9.37202 11.2325C9.42207 11.1525 9.49208 11.0925 9.56203 11.0625C9.63203 11.0325 9.72206 11.0125 9.81203 11.0125C9.90205 11.0125 9.98207 11.0325 10.062 11.0625C10.142 11.0925 10.202 11.1525 10.252 11.2325C10.3021 11.3125 10.3421 11.4125 10.372 11.5425Z" fill="white" fill-opacity="1"/>
</svg>
