<svg width="24" height="24" viewBox="0 0 24 24" fill="none" xmlns="http://www.w3.org/2000/svg">
<path fill-rule="evenodd" clip-rule="evenodd" d="M11.9619 2.85261V5.64261C16.9119 5.64261 20.8019 10.1226 19.8119 15.2526C19.2019 18.3726 16.6919 20.8826 13.5719 21.4926C8.84194 22.4126 4.66194 19.1626 4.04194 14.7726C3.96194 14.1726 4.44194 13.6426 5.04194 13.6426C5.54194 13.6426 5.96194 14.0126 6.02194 14.4926C6.50194 17.8026 9.68194 20.2526 13.2519 19.5026C15.5119 19.0326 17.3519 17.2026 17.8219 14.9326C18.6419 11.0626 15.6919 7.64261 11.9619 7.64261V10.4426C11.9619 10.8826 11.4219 11.1026 11.1119 10.7926L7.32194 7.00261C7.12194 6.80261 7.12194 6.49261 7.32194 6.29261L11.1119 2.50261C11.4219 2.18261 11.9619 2.40261 11.9619 2.85261ZM10.0119 16.6426H10.8619V12.3726H10.7719L9.00194 13.0026V13.6926L10.0119 13.3826V16.6426ZM15.1419 14.8826C15.1419 15.2026 15.1119 15.4826 15.0419 15.7026C14.9719 15.9226 14.8719 16.1226 14.7519 16.2726C14.6319 16.4226 14.4719 16.5326 14.3019 16.6026C14.1319 16.6726 13.9319 16.7026 13.7119 16.7026C13.4919 16.7026 13.3019 16.6726 13.1219 16.6026C12.9419 16.5326 12.7919 16.4226 12.6619 16.2726C12.5319 16.1226 12.4319 15.9326 12.3619 15.7026C12.2919 15.4726 12.2519 15.2026 12.2519 14.8826V14.1426C12.2519 13.8226 12.2819 13.5426 12.3519 13.3226C12.4219 13.1026 12.5219 12.9026 12.6419 12.7526C12.7619 12.6026 12.9219 12.4926 13.0919 12.4226C13.2619 12.3526 13.4619 12.3226 13.6819 12.3226C13.9019 12.3226 14.0919 12.3526 14.2719 12.4226C14.4519 12.4926 14.6019 12.6026 14.7319 12.7526C14.8619 12.9026 14.9619 13.0926 15.0319 13.3226C15.1019 13.5526 15.1419 13.8226 15.1419 14.1426V14.8826ZM14.2519 13.5426C14.2819 13.6726 14.2919 13.8326 14.2919 14.0226H14.2819V14.9926C14.2819 15.1826 14.2619 15.3426 14.2419 15.4726C14.2219 15.6026 14.1819 15.7126 14.1319 15.7926C14.0819 15.8726 14.0119 15.9326 13.9419 15.9626C13.8719 15.9926 13.7819 16.0126 13.6919 16.0126C13.6019 16.0126 13.5219 15.9926 13.4419 15.9626C13.3619 15.9326 13.3019 15.8726 13.2519 15.7926C13.2019 15.7126 13.1619 15.6026 13.1319 15.4726C13.1019 15.3426 13.0919 15.1826 13.0919 14.9926V14.0226C13.0919 13.8326 13.1019 13.6726 13.1319 13.5426C13.1619 13.4126 13.2019 13.3126 13.2519 13.2326C13.3019 13.1526 13.3719 13.0926 13.4419 13.0626C13.5119 13.0326 13.6019 13.0126 13.6919 13.0126C13.7819 13.0126 13.8619 13.0326 13.9419 13.0626C14.0219 13.0926 14.0819 13.1526 14.1319 13.2326C14.1819 13.3126 14.2219 13.4126 14.2519 13.5426Z" fill="white"/>
</svg>
