<svg width="22" height="16" viewBox="0 0 22 16" fill="none" xmlns="http://www.w3.org/2000/svg">
<path fill-rule="evenodd" clip-rule="evenodd" d="M1.1 0H12.1C12.705 0 13.2 0.514286 13.2 1.14286C13.2 1.77143 12.705 2.28571 12.1 2.28571H1.1C0.495 2.28571 0 1.77143 0 1.14286C0 0.514286 0.495 0 1.1 0ZM1.1 4.57143H12.1C12.705 4.57143 13.2 5.08571 13.2 5.71429C13.2 6.34286 12.705 6.85714 12.1 6.85714H1.1C0.495 6.85714 0 6.34286 0 5.71429C0 5.08571 0.495 4.57143 1.1 4.57143ZM17.6 9.14286V5.71429C17.6 5.08571 17.105 4.57143 16.5 4.57143C15.895 4.57143 15.4 5.08571 15.4 5.71429V9.14286H12.1C11.495 9.14286 11 9.65714 11 10.2857C11 10.9143 11.495 11.4286 12.1 11.4286H15.4V14.8571C15.4 15.4857 15.895 16 16.5 16C17.105 16 17.6 15.4857 17.6 14.8571V11.4286H20.9C21.505 11.4286 22 10.9143 22 10.2857C22 9.65714 21.505 9.14286 20.9 9.14286H17.6ZM7.7 11.4286H1.1C0.495 11.4286 0 10.9143 0 10.2857C0 9.65714 0.495 9.14286 1.1 9.14286H7.7C8.305 9.14286 8.8 9.65714 8.8 10.2857C8.8 10.9143 8.305 11.4286 7.7 11.4286Z" fill="black"/>
</svg>
