<svg width="20" height="20" viewBox="0 0 20 20" fill="none" xmlns="http://www.w3.org/2000/svg">
<path fill-rule="evenodd" clip-rule="evenodd" d="M1.68936 10.5982C1.33103 5.52318 5.5227 1.33152 10.5977 1.68985C15.006 1.98985 18.331 5.83985 18.331 10.2649V11.1732C18.331 12.3732 17.6477 13.5148 16.531 13.9565C15.1727 14.4982 13.6894 13.9648 12.9477 12.9482C11.9894 13.9232 10.531 14.4149 8.9977 14.0565C7.4227 13.6815 6.18103 12.3649 5.8977 10.7732C5.38936 7.92318 7.78103 5.47318 10.6144 5.88152C12.681 6.17318 14.1644 8.05652 14.1644 10.1482V11.1898C14.1644 11.8482 14.756 12.4982 15.4144 12.4982C16.0727 12.4982 16.6644 11.8482 16.6644 11.1898V10.2732C16.6644 7.16485 14.6477 4.31485 11.631 3.54818C6.7977 2.29818 2.2977 6.80652 3.53936 11.6399C4.31436 14.6482 7.16436 16.6649 10.2727 16.6649H13.331C13.7894 16.6649 14.1644 17.0399 14.1644 17.4982C14.1644 17.9565 13.7894 18.3315 13.331 18.3315H10.256C5.83936 18.3315 1.98936 15.0065 1.68936 10.5982ZM7.49766 9.9982C7.49766 11.3815 8.61433 12.4982 9.99766 12.4982C11.381 12.4982 12.4977 11.3815 12.4977 9.9982C12.4977 8.61486 11.381 7.4982 9.99766 7.4982C8.61433 7.4982 7.49766 8.61486 7.49766 9.9982Z" fill="black"/>
</svg>
