<svg width="20" height="20" viewBox="0 0 20 20" fill="none" xmlns="http://www.w3.org/2000/svg">
<path fill-rule="evenodd" clip-rule="evenodd" d="M18.3536 15.107C18.923 14.1311 19.1663 12.5576 19.1663 9.99783C19.1663 7.44831 18.9253 5.8839 18.3499 4.88185C17.7731 3.8413 17.0891 3.51102 15.7316 3.43175C14.8048 3.36893 12.5016 3.3335 10.0019 3.3335C7.49685 3.3335 5.19255 3.36892 4.25885 3.43224C2.90894 3.51121 2.22477 3.84222 1.64295 4.88566C1.07583 5.88425 0.833008 7.45631 0.833008 10.0072C0.833008 12.5435 1.077 14.1235 1.64793 15.1188C2.22219 16.1488 2.89545 16.4758 4.25685 16.5714C5.23531 16.6287 7.67002 16.6668 10.0019 16.6668C12.3285 16.6668 14.7621 16.6287 15.7316 16.5721C17.1055 16.4759 17.7787 16.1483 18.3536 15.107ZM15.6267 5.09509C16.4758 5.14471 16.6333 5.22104 16.9024 5.70819C17.2943 6.38682 17.4997 7.71492 17.4997 10.0072C17.4997 12.2821 17.2932 13.6175 16.9043 14.2843C16.6342 14.773 16.4778 14.8491 15.6248 14.9089C14.7071 14.9624 12.2972 15.0002 10.0019 15.0002C7.70145 15.0002 5.29029 14.9624 4.36387 14.9082C3.52135 14.849 3.36272 14.772 3.09862 14.2983C2.70706 13.6156 2.49968 12.2727 2.49968 9.99783C2.49968 7.72432 2.70596 6.38882 3.09542 5.70301C3.36363 5.22205 3.52338 5.14477 4.36392 5.09557C5.25391 5.03525 7.53654 5.00016 10.0019 5.00016C12.462 5.00016 14.7435 5.03526 15.6267 5.09509ZM8.33301 7.50016L12.4997 10.0002L8.33301 12.5002V7.50016Z" fill="black"/>
</svg>
